<?xml version="1.0" standalone="no"?>
<!DOCTYPE svg PUBLIC "-//W3C//DTD SVG 20010904//EN"
 "http://www.w3.org/TR/2001/REC-SVG-20010904/DTD/svg10.dtd">
<svg version="1.0" xmlns="http://www.w3.org/2000/svg"
 width="200.000000pt" height="150.000000pt" viewBox="0 0 200.000000 150.000000"
 preserveAspectRatio="xMidYMid meet">

<g transform="translate(0.000000,150.000000) scale(0.100000,-0.100000)"
fill="#000000" stroke="none">
<path d="M650 1410 c-427 -14 -511 -35 -576 -146 -36 -61 -51 -138 -65 -334
-17 -246 0 -569 37 -700 12 -40 28 -67 63 -101 83 -84 180 -97 741 -106 382
-6 745 6 879 27 161 27 225 107 250 316 27 223 22 594 -10 781 -22 125 -102
211 -216 232 -146 28 -712 44 -1103 31z m435 -553 c116 -66 216 -125 223 -132
9 -8 0 -18 -40 -41 -307 -177 -459 -264 -463 -264 -3 0 -5 135 -5 301 l0 301
38 -22 c20 -12 131 -77 247 -143z"/>
</g>
</svg>
